<?xml version="1.0" encoding="UTF-8"?>
<svg id="Layer_1" xmlns="http://www.w3.org/2000/svg" version="1.1" viewBox="0 0 32 32">
  <!-- Generator: Adobe Illustrator 29.6.0, SVG Export Plug-In . SVG Version: 2.1.1 Build 207)  -->
  <defs>
    <style>
      .st0 {
        fill: #f8f4eb;
      }
    </style>
  </defs>
  <path class="st0" d="M11.9,32c.4,0,1,.1,1.5-.2.5-.3.9-1,1-2.5,0-1.6,0-2.6,0-2.7-.4-2.5-1.7-5.2-3.7-10.9-2.1-5.9.4-10.6,3.1-13.7.7-.7.2-1.8-.9-1.8-1,0-2.3.3-3.4.9-3.6,1.9-7.1,6.9-7.1,14.7,0,0,0,.2,0,.3,0,.1,0,.2,0,.3,0,8.4,3.9,13.6,7.8,15.1.8.3,1.7.5,1.9.5Z"/>
  <path class="st0" d="M18.5,18.6c1.6,4.6.6,9.1-.7,12.3-.2.5.2,1,.7.9,0,0,3.2,0,6-3,2.5-2.8,4.3-6.8,4.3-12.6,0-.1,0-.5,0-.6,0-9.1-4.8-14.4-9-15.4-.6-.1-1.2.1-1.4.7-1.9,4.3-2.3,11.3,0,17.7Z"/>
</svg>