<?xml version="1.0" encoding="UTF-8"?>
<svg id="Layer_1" data-name="Layer 1" xmlns="http://www.w3.org/2000/svg" xmlns:xlink="http://www.w3.org/1999/xlink" viewBox="0 0 100.38 140.17">
  <defs>
    <style>
      .cls-1 {
        fill: #e4b72d;
      }

      .cls-2 {
        fill: url(#linear-gradient);
      }

      .cls-3 {
        fill: #fffacf;
      }

      .cls-4 {
        fill: #fff;
      }

      .cls-5 {
        fill: #eccb59;
      }

      .cls-6 {
        fill: #fef3a0;
      }
    </style>
    <linearGradient id="linear-gradient" x1="240284.47" y1="-99188.77" x2="221472.45" y2="-92808.86" gradientTransform="translate(513.49 867.53) scale(0)" gradientUnits="userSpaceOnUse">
      <stop offset="0" stop-color="#e6b12a"/>
      <stop offset=".41" stop-color="#fbde66"/>
      <stop offset=".45" stop-color="#fce26c"/>
      <stop offset=".75" stop-color="#efbe35"/>
      <stop offset="1" stop-color="#fde345"/>
    </linearGradient>
  </defs>
  <g id="Generative_Object" data-name="Generative Object">
    <g>
      <g>
        <path class="cls-5" d="M51,.2v12.68c.07.09.44.1.47.07.49-.42-.24-11.37.07-12.88.14,0,.51,0,.54,0,.2,2.15.16,4.35.13,6.51-.01.96-.28,2.65-.27,3.89l.54,2.08c-.44.97-1.16,1.86-2.35,1.34-1.07-.47-.95-2.3-1.01-3.22,0-.01.27.04.27-.07-.07-1.29-.3-2.89-.27-4.36.04-2.03.25-4.07.13-6.11.2-.28,1.51.08,1.74.07Z"/>
        <path class="cls-1" d="M52.87,6.24c0,1.28.07,3.38,0,4.56-.04.63-.14,1.16-.4,1.74l-.54-2.08c0-1.25.26-2.93.27-3.89.03-2.16.07-4.35-.13-6.51.24.04.43.01.67.07-.13,2.03.12,4.09.13,6.11Z"/>
        <path class="cls-6" d="M51.53.07c-.31,1.51.43,12.47-.07,12.88-.03.03-.4.03-.47-.07V.2s.17-.16.54-.13Z"/>
        <path class="cls-4" d="M49.12,10.67c.05.92-.07,2.76,1.01,3.22,1.19.52,1.91-.37,2.35-1.34.26-.58.36-1.11.4-1.74,3.71,2.86-.88,7.79-4.36,4.97-1.63-1.32-1.56-4.39.6-5.1Z"/>
      </g>
      <g>
        <path class="cls-5" d="M21.74.07v12.68l.47.47.34-13.02c.35-.01.84-.2,1.21-.13.14,3.4-.64,8.22-.13,11.47.01.07.64.08.4,1.01-.43.94-1.17,1.89-2.35,1.34-.95-.44-.97-2.45-1.01-3.36-.05-1.18-.02-3.06,0-4.29.03-2.02.26-4.07.13-6.11.1-.14.73-.04.94-.07Z"/>
        <path class="cls-1" d="M24.42,6.24c0,1.46.14,3.14,0,4.56-.07.68-.11,1.11-.4,1.74.23-.93-.39-.94-.4-1.01-.51-3.25.27-8.08.13-11.47.25.04.48-.1.67.2,0,1.99,0,3.98,0,5.97Z"/>
        <path class="cls-5" d="M22.55.2l-.34,13.02-.47-.47V.07c.37-.04.7.14.81.13Z"/>
        <path class="cls-4" d="M24.02,12.55c.29-.64.34-1.06.4-1.74,2.47,1.69,1.25,5.43-1.54,5.77-3.61.44-5.51-4.19-2.21-6.04.04.91.05,2.91,1.01,3.36,1.18.55,1.92-.4,2.35-1.34Z"/>
      </g>
      <g>
        <path class="cls-5" d="M8.32.2l.2,12.88L8.86.07c.35.08.17.1.4.27l-.13,11.47.94.07c-.4,2.31-3.1,3.44-3.62,0L6.71.07c.41-.15,1.24.12,1.61.13Z"/>
        <path class="cls-1" d="M10.07,6.24c0,1.46.1,3.14,0,4.56-.02.34.05.76,0,1.07l-.94-.07.13-11.47c.06-.34.65-.39.81-.07,0,1.99,0,3.98,0,5.97Z"/>
        <path class="cls-6" d="M8.86.07l-.34,13.02-.2-12.88s.13-.23.54-.13Z"/>
        <path class="cls-4" d="M6.44,11.88c.52,3.44,3.22,2.31,3.62,0,.05-.31-.02-.73,0-1.07,2.29,1.3,1.48,5-1.01,5.64-3.82.97-6.25-3.66-2.82-5.9.33.05.16,1.08.2,1.34Z"/>
      </g>
      <g>
        <path class="cls-5" d="M65.36.2l-.13,12.55c.11.14.28.28.47.2.59-.24-.03-11.32.2-12.75.1,0,.07-.03.27,0l.13,12.01.67.07c-.37,1.32-1.44,2.24-2.68,1.34l-.81-13.29c.03-.07-.05-.21.07-.27.32-.17,1.5.15,1.81.13Z"/>
        <path class="cls-1" d="M67.37,6.24c0,.4-.27.23-.27.34,0,1.29.07,2.61,0,3.89-.01.19,0,.3,0,.34-.04.55.03.89-.13,1.48l-.67-.07-.13-12.01c.11.02.67-.39.94.07,0,1.97-.01,3.94,0,5.9,0,.11.27.05.27.07Z"/>
        <path class="cls-6" d="M65.89.2c-.23,1.43.39,12.51-.2,12.75-.18.08-.36-.06-.47-.2l.13-12.55c.25,0,.26-.02.54,0Z"/>
        <path class="cls-4" d="M64.28,13.62c1.25.9,2.31-.02,2.68-1.34.16-.58.09-.93.13-1.48,2.4,1.21,1.66,4.99-.87,5.64-3.77.96-6.32-3.75-2.82-5.77.11,1.12-.15,2.21.87,2.95Z"/>
      </g>
      <path class="cls-4" d="M81.59,10.94c0-.59.36.16.67.27.54,1.43,1.19,2.18.27,3.82-2.39,4.28-9.68-1.01-4.76-4.36-.24,4.42,3.55,4.39,3.82.27Z"/>
    </g>
    <g>
      <path class="cls-2" d="M49.12,6.24c-.03,1.47.2,3.07.27,4.36,0,.11-.27.05-.27.07-2.16.71-2.24,3.78-.6,5.1,3.48,2.82,8.07-2.11,4.36-4.97.07-1.19,0-3.28,0-4.56h10.53c.31-.22-.18-5.2.07-5.9l.81,13.29c-1.02-.74-.76-1.84-.87-2.95-3.5,2.02-.95,6.73,2.82,5.77,2.53-.64,3.27-4.42.87-5.64,0-.03-.01-.14,0-.34.07-1.28,0-2.6,0-3.89,0-.11.27.07.27-.34h10.4l.2-6.24c.8.28,2.27-.1,2.95.07l-.13,11.74c.77.17.03-1.06.81-.87-.27,4.12-4.07,4.15-3.82-.27-4.92,3.36,2.37,8.64,4.76,4.36.92-1.65.27-2.4-.27-3.82-.16-.42-.61-.67-.67-.87-.33-1.13,0-2.96,0-4.09h10.53c.12-.03.05-.26.07-.27.08-.05.21.24.27.07s.15-2.15-.27-2.21v-.13c.61-.91.1-2.54.27-3.62.61.12,3.2-.16,3.36.2v5.9c1.95-.05,3.62.35,4.43,2.28l.13,128.7c-.16,1.58-1.05,2.72-2.62,3.02H2.62c-1.43-.37-2.34-1.3-2.62-2.75V9.26c.53-3.55,3.7-2.98,6.44-3.09.15-.82-.31-5.89.27-6.11l-.27,11.81c-.04-.26.13-1.3-.2-1.34-3.43,2.24-1,6.88,2.82,5.9,2.48-.63,3.3-4.34,1.01-5.64.1-1.43,0-3.11,0-4.56h10.6c-.02,1.24-.05,3.11,0,4.29-3.3,1.85-1.39,6.48,2.21,6.04,2.79-.34,4.02-4.08,1.54-5.77.14-1.43,0-3.1,0-4.56h10.53l.07-5.97c.57-.33,3.65-.24,3.76,0l.07,5.97h10.27Z"/>
      <g>
        <path class="cls-6" d="M79.58,78.84v1.07c-16.01.05-32.03.02-48.04,0l-.13-1.07c16.06-.02,32.12-.05,48.18,0Z"/>
        <path class="cls-6" d="M77.7,73.21v1.07c-15.56.04-31.14.02-46.7,0l-.13-1.07c15.61-.02,31.22-.04,46.84,0Z"/>
        <path class="cls-6" d="M82.53,101.12c-.4,1.67,2.34.2,3.09,1.07-14.76.07-29.53.01-44.29,0-.77-.88-3.61.61-3.22-1.07,14.8-.02,29.62-.06,44.42,0Z"/>
        <path class="cls-5" d="M38.11,101.12c-.39,1.68,2.45.19,3.22,1.07-11.92-.01-23.84,0-35.76,0l.13-1.07c10.8,0,21.61.01,32.41,0Z"/>
        <path class="cls-5" d="M37.84,106.62v1.07c-10.76-.01-21.52,0-32.28,0l-.07-.87c10.75-.37,21.57-.19,32.34-.2Z"/>
        <path class="cls-5" d="M35.7,95.48c-.52,1.26,1.78,1.02,2.82,1.07H5.57l.13-1.07c10,0,20,.01,29.99,0Z"/>
        <path class="cls-5" d="M34.49,89.98c.25,1.36-.7.41-.94,1.07-9.32-.01-18.65,0-27.98,0l-.07-1.01c9.66-.13,19.33-.06,28.99-.07Z"/>
        <path class="cls-5" d="M31.4,78.84l.13,1.07c-8.68-.01-17.36.06-26.03-.07l.07-1.01c8.61,0,17.22.01,25.83,0Z"/>
        <path class="cls-5" d="M30.87,73.21l.13,1.07c-8.5-.01-17,.06-25.5-.07l.2-1.01c8.39,0,16.78.01,25.16,0Z"/>
        <path class="cls-5" d="M30.06,67.57c.04.22-.08.83.07.94.12.08,2.47.11,2.89.13H5.57l.13-1.07c8.12.02,16.24-.01,24.36,0Z"/>
        <path class="cls-3" d="M70.19,84.48v.94c-9.17-.01-18.34.07-27.51,0v-.94c9.17,0,18.34-.01,27.51,0Z"/>
        <path class="cls-5" d="M71.39,29.73v-1.07c7.82,0,15.67-.06,23.49.07l-.2,1.01c-7.76.01-15.52-.01-23.28,0Z"/>
        <path class="cls-5" d="M31.54,84.48c.03.2-.08.7.07.81.12.08,2.47.11,2.89.13H5.57v-.94c8.66,0,17.31.01,25.97,0Z"/>
        <path class="cls-3" d="M69.65,106.62v1.07h-22.28v-1.07c7.42,0,14.85-.01,22.28,0Z"/>
        <path class="cls-5" d="M27.11,62.07v1.07c-7.18-.01-14.36,0-21.54,0l-.07-1.01c7.2-.12,14.41-.07,21.61-.07Z"/>
        <path class="cls-3" d="M60.39,39.79v1.07c-7.07,0-14.14,0-21.2,0v-1.07c7.07,0,14.14,0,21.2,0Z"/>
        <path class="cls-3" d="M62.13,56.43l.13,1.07c-7.33,0-14.68.03-22.01,0,.26-.7,1.34.33,1.07-1.07,6.93-.01,13.87-.02,20.8,0Z"/>
        <path class="cls-5" d="M25.77,39.79v1.07c-6.73-.01-13.47,0-20.2,0l-.07-.87c6.74-.38,13.52-.19,20.26-.2Z"/>
        <path class="cls-5" d="M76.23,35.23c-.92-.06-2.76.12-2.55-.94,6.9-.02,13.81-.23,20.73-.13.33.01.56.96.27,1.07-6.05-.29-12.45.38-18.45,0Z"/>
        <path class="cls-3" d="M66.97,89.98l-.13,1.07c-6.71,0-13.42,0-20.13,0l.13-1.07c6.71,0,13.42,0,20.13,0Z"/>
        <path class="cls-5" d="M26.17,45.29v1.07c-6.86-.01-13.73,0-20.6,0l-.07-.87c6.9-.25,13.77-.2,20.67-.2Z"/>
        <path class="cls-3" d="M62,50.93v.94c-7.42,0-14.85.04-22.28,0l-.13-.94c7.47,0,14.94,0,22.41,0Z"/>
        <path class="cls-3" d="M57.04,28.65l.13,1.07c-6.53,0-13.06,0-19.59,0l-.13-1.07c6.53,0,13.06,0,19.59,0Z"/>
        <path class="cls-5" d="M26.57,56.43c-.2.96.48.98,1.21,1.07H5.57l.13-1.07c6.95.34,13.93.04,20.87,0Z"/>
        <path class="cls-3" d="M58.78,34.29v.94c-7.33,0-14.67,0-22.01,0v-.94c7.33,0,14.67,0,22.01,0Z"/>
        <path class="cls-5" d="M75.55,40.86v-1.07c6.37.01,12.75,0,19.12,0l.07,1.01c-6.39.13-12.8.05-19.19.07Z"/>
        <path class="cls-5" d="M75.02,46.37c.44-.21.6-.4.54-.94,6.33-.01,12.67-.2,18.99-.13l.2,1.01c-6.57.13-13.15.05-19.73.07Z"/>
        <path class="cls-5" d="M23.62,28.65v1.07c-6.01-.01-12.03,0-18.05,0l-.07-1.01c6.04-.13,12.08-.05,18.12-.07Z"/>
        <path class="cls-3" d="M62.27,62.2v.94c-6.84,0-13.69,0-20.53,0v-1.07c6.83,0,13.7.13,20.53.13Z"/>
        <path class="cls-5" d="M25.36,50.93c.03.2-.08.7.07.81.13.1,2.82.11,3.29.13H5.57v-.94c6.6,0,13.2.01,19.79,0Z"/>
        <path class="cls-3" d="M65.89,95.48v1.07c-5.95,0-11.9.04-17.85,0v-1.07c5.95,0,11.89-.02,17.85,0Z"/>
        <path class="cls-3" d="M63.61,67.7v.94c-6.7.04-13.43.04-20.13,0v-.94c6.71.01,13.42-.02,20.13,0Z"/>
        <path class="cls-5" d="M23.75,34.15v1.07c-6.06-.01-12.12,0-18.18,0l-.07-.87c6.08-.16,12.16-.21,18.25-.2Z"/>
        <path class="cls-3" d="M58.51,45.43v.94c-6.53,0-13.06,0-19.59,0v-1.07c6.51,0,13.07.13,19.59.13Z"/>
        <path class="cls-5" d="M77.7,74.28v-1.07c5.66.01,11.32-.01,16.98,0l.07,1.01c-5.68.13-11.36.05-17.04.07Z"/>
        <path class="cls-5" d="M73.81,68.64c.56-.02,3.8-.02,3.96-.13.15-.1.03-.6.07-.81,5.52.01,11.06.1,16.57-.13.47.18.39.61.27,1.07h-20.87Z"/>
        <path class="cls-6" d="M79.58,62.07l.13,1.07c-5.81.02-11.63,0-17.45,0v-.94c5.79,0,11.54-.13,17.31-.13Z"/>
        <path class="cls-5" d="M73.27,51.87c1.03-.6,4.24.68,3.89-.94,5.84.01,11.68,0,17.51,0v.94c-7.13,0-14.27-.01-21.4,0Z"/>
        <path class="cls-5" d="M74.08,57.5c.98-.58,3.86.65,3.49-.94,5.67.04,11.34.02,16.98-.13l.13,1.07c-6.87,0-13.74-.01-20.6,0Z"/>
        <path class="cls-6" d="M75.55,39.79v1.07c-5.05,0-10.11,0-15.16,0v-1.07c5.05,0,10.11,0,15.16,0Z"/>
        <path class="cls-5" d="M79.58,79.92v-1.07c5.03.02,10.07-.01,15.1,0l.07,1.01c-5.05.13-10.11.05-15.16.07Z"/>
        <path class="cls-5" d="M79.72,63.14l-.13-1.07c1.61,0,14.86-.49,15.16.2.04.09.02.81-.07.87-.61.43-13.11,0-14.96,0Z"/>
        <path class="cls-5" d="M79.72,91.05v-1.07c4.99.02,9.98-.01,14.96,0,.04.09.23.84.2.87-.48.58-13.36.2-15.16.2Z"/>
        <path class="cls-6" d="M75.55,45.43c.06.54-.1.73-.54.94-5.5.01-11.01,0-16.51,0v-.94c5.69,0,11.37.01,17.04,0Z"/>
        <path class="cls-6" d="M41.74,62.07v1.07c-4.87,0-9.75,0-14.63,0v-1.07c4.87,0,9.76,0,14.63,0Z"/>
        <path class="cls-6" d="M77.57,56.57c.37,1.59-2.51.36-3.49.94-3.93,0-7.88,0-11.81,0l-.13-1.07c5.15.02,10.29.1,15.43.13Z"/>
        <path class="cls-6" d="M71.39,28.65v1.07c-4.74,0-9.49,0-14.23,0l-.13-1.07c4.78,0,9.58,0,14.36,0Z"/>
        <path class="cls-6" d="M41.33,56.43c.27,1.41-.82.38-1.07,1.07-3.67-.02-9.04.44-12.48,0-.72-.09-1.41-.12-1.21-1.07,4.92-.03,9.84,0,14.76,0Z"/>
        <path class="cls-6" d="M37.44,28.65l.13,1.07c-4.65,0-9.31.01-13.96,0v-1.07c4.61-.01,9.22,0,13.82,0Z"/>
        <path class="cls-5" d="M78.1,85.42c.93-.55,3.46.62,3.09-.94,1.71,0,12.9-.34,13.49,0,.06.04.28.99,0,1.07-5.53.07-11.05-.12-16.57-.13Z"/>
        <path class="cls-6" d="M80.79,95.62c.37,1.57-2.28.38-3.22.94-3.89,0-7.79,0-11.68,0v-1.07c4.97.01,9.93.11,14.9.13Z"/>
        <path class="cls-5" d="M77.57,96.56c.94-.56,3.59.63,3.22-.94,1.82,0,12.75-.42,13.49-.13.61.24.55.39.4,1.07-5.7,0-11.41-.01-17.11,0Z"/>
        <path class="cls-6" d="M73.68,34.29c-.21,1.06,1.63.88,2.55.94h-17.45v-.94c4.96,0,9.95.01,14.9,0Z"/>
        <path class="cls-6" d="M39.19,39.79v1.07c-4.47,0-8.95,0-13.42,0v-1.07c4.47,0,8.95,0,13.42,0Z"/>
        <path class="cls-6" d="M82.67,106.62c-.41,1.22,1.13,1.01,2.15,1.07h-15.16v-1.07c4.34,0,8.68-.02,13.02,0Z"/>
        <path class="cls-6" d="M79.72,89.98v1.07c-4.29.01-8.59,0-12.88,0l.13-1.07c4.25,0,8.5-.01,12.75,0Z"/>
        <path class="cls-6" d="M77.17,50.93c.35,1.62-2.86.34-3.89.94-3.76,0-7.52,0-11.27,0v-.94c5.05,0,10.11-.01,15.16,0Z"/>
        <path class="cls-6" d="M38.92,45.29v1.07c-4.25,0-8.5,0-12.75,0v-1.07c4.24,0,8.5,0,12.75,0Z"/>
        <path class="cls-6" d="M43.48,67.7v.94c-3.43-.02-7.08.18-10.47,0-.42-.02-2.77-.05-2.89-.13-.15-.11-.03-.72-.07-.94,4.47,0,8.95.13,13.42.13Z"/>
        <path class="cls-6" d="M46.84,89.98l-.13,1.07c-4.38,0-8.77,0-13.15,0,.24-.67,1.19.29.94-1.07,4.11,0,8.23,0,12.35,0Z"/>
        <path class="cls-6" d="M39.59,50.93l.13.94c-3.62-.02-7.41.16-11,0-.46-.02-3.15-.04-3.29-.13-.15-.1-.03-.6-.07-.81,4.74,0,9.49,0,14.23,0Z"/>
        <path class="cls-6" d="M48.04,95.48v1.07c-3.11-.02-6.45.17-9.53,0-1.04-.06-3.34.19-2.82-1.07,4.11,0,8.23,0,12.35,0Z"/>
        <path class="cls-6" d="M77.84,67.7c-.03.2.08.7-.07.81-.16.11-3.4.11-3.96.13-3.37.13-6.81-.02-10.2,0v-.94c4.74.01,9.49-.01,14.23,0Z"/>
        <path class="cls-6" d="M36.77,34.29v.94c-4.34,0-8.68,0-13.02,0v-1.07c4.33,0,8.66.13,13.02.13Z"/>
        <path class="cls-5" d="M84.81,107.7c-1.02-.07-2.55.14-2.15-1.07,3.96.02,7.92-.01,11.88,0,.28.13.26.99.13,1.07-.4.28-8.77.07-9.86,0Z"/>
        <path class="cls-5" d="M85.62,102.19c-.75-.87-3.48.6-3.09-1.07,4.05.02,8.1-.01,12.15,0v1.07c-3.02.01-6.04-.01-9.06,0Z"/>
        <path class="cls-6" d="M47.37,106.62v1.07c-3.17,0-6.35,0-9.53,0v-1.07c3.17,0,6.35,0,9.53,0Z"/>
        <path class="cls-6" d="M42.68,84.48v.94c-2.68-.02-5.53.14-8.19,0-.42-.02-2.77-.05-2.89-.13-.15-.1-.03-.6-.07-.81,3.71,0,7.43,0,11.14,0Z"/>
        <path class="cls-6" d="M81.19,84.48c.37,1.56-2.16.39-3.09.94-2.64,0-5.28,0-7.92,0v-.94c3.67,0,7.34-.01,11,0Z"/>
        <g>
          <path class="cls-1" d="M81.59,6.24c0,1.13-.33,2.97,0,4.09.06.21.51.45.67.87-.31-.11-.68-.86-.67-.27-.78-.19-.04,1.05-.81.87l.13-11.74c.23.06.48-.11.67.2.01,1.99-.01,3.98,0,5.97Z"/>
          <g>
            <path class="cls-1" d="M92.2,3.69c0-.6-.12-3.09,0-3.42l.27-.2c-.16,1.08.34,2.71-.27,3.62Z"/>
            <path class="cls-1" d="M92.2,5.97v-2.15c.42.07.32,2.05.27,2.21s-.19-.12-.27-.07Z"/>
            <path class="cls-4" d="M91.86,10.67c.19-.01.37-.06.34.2-.19,4.63,3.61,3.83,3.82-.2,1.67,1.26,1.71,3.98,0,5.23-2.38,1.75-6.02-.18-5.57-3.15.06-.37,1.11-2.06,1.41-2.08Z"/>
          </g>
          <g>
            <path class="cls-4" d="M34.83,10.67c.14,4.53,3.51,4.34,4.03.13,3.28,2.68-.25,7.23-3.89,5.37-2.09-1.07-2.22-4.35-.13-5.5Z"/>
            <polygon class="cls-6" points="37.11 .34 37.51 7.18 37.24 13.08 37.04 6.98 37.11 .34"/>
          </g>
        </g>
      </g>
    </g>
  </g>
</svg>