<?xml version="1.0" encoding="UTF-8"?>
<svg id="Layer_1" xmlns="http://www.w3.org/2000/svg" version="1.1" viewBox="0 0 48 48">
  <defs>
    <style>
      .st0 {
        fill: #fefefe;
      }
    </style>
  </defs>
  <path class="st0" d="M42 28h-2.5l-2-8c-0.5-2-2.3-3.5-4.4-3.5H14.9c-2.1 0-3.9 1.5-4.4 3.5l-2 8H6c-1.1 0-2 0.9-2 2v6c0 1.1 0.9 2 2 2h2v4c0 1.1 0.9 2 2 2h4c1.1 0 2-0.9 2-2v-4h16v4c0 1.1 0.9 2 2 2h4c1.1 0 2-0.9 2-2v-4h2c1.1 0 2-0.9 2-2v-6c0-1.1-0.9-2-2-2zM12 32c-1.7 0-3-1.3-3-3s1.3-3 3-3 3 1.3 3 3-1.3 3-3 3zm24 0c-1.7 0-3-1.3-3-3s1.3-3 3-3 3 1.3 3 3-1.3 3-3 3zm4-10H8l1.5-6c0.2-0.8 0.9-1.5 1.8-1.5h25.4c0.9 0 1.6 0.7 1.8 1.5L40 22z"/>
</svg> 