<?xml version="1.0" encoding="UTF-8"?>
<svg id="Layer_1" xmlns="http://www.w3.org/2000/svg" version="1.1" viewBox="0 0 48 49">
  <!-- Generator: Adobe Illustrator 29.6.0, SVG Export Plug-In . SVG Version: 2.1.1 Build 207)  -->
  <defs>
    <style>
      .st0 {
        fill: #fefefe;
      }
    </style>
  </defs>
  <path class="st0" d="M47.8,22c-1-3.5-5.6-1-7.1-4.2-1.5-3.4,2.2-4,2.2-6.9,0-1.7-2.9-4.8-4.5-5.2-3-.8-3.4,2.1-5.9,2.4-1.6.2-3-.7-3.5-2.3-.6-1.7.3-3.1-1.5-4.5-1.2-1-3.9-1-5.4-.8-.9.1-1.8.7-2.3,1.5-1.2,1.8.3,4.3-2.4,5.7-3.7,1.8-4.5-3-8-2-1.4.4-4.1,3.4-4.3,4.9-.3,2.5,1.7,2.7,2.3,4.6.8,2.1-.5,4.2-2.7,4.5-.8.1-1.5,0-2.3.2-.9.3-1.9,1.3-2.1,2.2-.3,1-.3,3.9,0,4.9,1,3.5,5.6,1,7.1,4.2,1.5,3.4-2.2,4-2.2,6.9,0,1.7,2.9,4.8,4.5,5.2,3,.8,3.4-2.1,5.9-2.4,1.6-.2,3,.7,3.5,2.3.6,1.7-.3,3.1,1.5,4.5,1.3,1,5.2,1.2,6.6.4,2.9-1.6.4-5.2,3.5-6.8,3.7-1.8,4.5,3,8,2,1.4-.4,4.1-3.4,4.3-4.9.3-2.5-1.7-2.7-2.3-4.6-.8-2.1.5-4.2,2.7-4.5.8-.1,1.5,0,2.3-.2.9-.3,1.9-1.3,2.1-2.2.2-1,.3-4,0-4.9ZM26.7,33.1c-12.6,3.7-16.3-16.1-3.7-17.6,10.9-1.2,14,14.5,3.7,17.6Z"/>
</svg>