<?xml version="1.0" encoding="UTF-8"?>
<svg id="Layer_1" data-name="Layer 1" xmlns="http://www.w3.org/2000/svg" viewBox="0 0 50 49.79">
  <defs>
    <style>
      .cls-1 {
        fill: #fff;
        stroke: #fff;
        stroke-linecap: round;
        stroke-linejoin: round;
        stroke-width: 1.41px;
      }
    </style>
  </defs>
  <g id="Generative_Object" data-name="Generative Object">
    <path class="cls-1" d="M21.26.75l7.52-.05.79,6.05c1.41.04,3.69,1.75,4.72,1.92,1.1.18,4.63-4.06,5.31-3.76.35.16,5.26,5.14,5.34,5.52-.23,1.35-3.85,4.07-3.66,5.2.17,1.01,1.75,3.39,2.01,4.65l5.89.76.11,7.69c-.2.47-5.55.26-6.17.98-.49.58-1.35,4-1.96,4.9.44.84,3.92,4.03,3.77,4.73-.08.38-5.08,5.43-5.44,5.62-.13.07-.21.12-.35,0-.88-.72-3.93-3.94-4.87-3.83-.25.03-4.44,1.79-4.59,1.99-.47.63-.34,5.6-.85,5.93l-7.99.02c0-1-.15-5.71-.76-6.19l-4.76-1.82-4.79,3.84c-1.83-1.86-3.96-3.71-5.44-5.79.45-1.14,3.84-4.02,3.7-4.98-.04-.25-1.86-4.44-2.06-4.59-.61-.47-5.63-.4-5.91-.83.26-1.35-.42-6.64-.02-7.54.33-.75,5.18-.45,5.96-1.05.65-.51,1.26-3.83,2.08-4.61.15-1-4.11-4.55-3.84-5.17l5.52-5.46,4.91,3.74c.24.05,4.45-1.61,4.66-1.75.88-.63.48-5,1.15-6.12Z"/>
    <path class="cls-1" d="M23.78,14.92s.08,0,.12-.01c13.06-1.48,15.43,18.29,2.38,19.93s-15.62-18.26-2.5-19.91Z"/>
  </g>
</svg>