<?xml version="1.0" encoding="UTF-8"?>
<svg xmlns="http://www.w3.org/2000/svg" version="1.1" viewBox="0 0 101.42 121.8">
  <defs>
    <style>
      .cls-1 {
        fill: #fff;
      }
    </style>
  </defs>
  <!-- Generator: Adobe Illustrator 28.7.7, SVG Export Plug-In . SVG Version: 1.2.0 Build 194)  -->
  <g>
    <g id="Layer_1">
      <g id="NQNZ6m.tif">
        <g>
          <path class="cls-1" d="M130.44-10.22c-.17-.17-.33-.33-.5-.5.43-.1.6.07.5.5Z"/>
          <path class="cls-1" d="M-35.49,126.71c.17.17.33.33.5.5-.43.1-.6-.07-.5-.5Z"/>
          <path class="cls-1" d="M129.94,127.21l.5-.5c.1.43-.07.59-.5.5Z"/>
          <path class="cls-1" d="M96.09,82.64c-.05,12.01-5.65,19.93-15.06,25.32-7.51,4.31-15.79,6.16-24.41,6.85-7.58.61-15.1.38-22.5-1.13-10.18-2.08-19.57-5.88-26.04-14.59-4.56-6.14-5.58-13.29-4.44-20.6.86-5.48,6.33-9.38,12.51-9.4,22.49-.07,44.98-.1,67.47.03,6.09.03,13.23,4.64,12.47,13.52Z"/>
          <path class="cls-1" d="M49.72,2.71c16.18,0,29.7,12.82,29.72,29.38.02,16.42-13.26,29.36-29.73,29.35-16.63,0-29.83-13.07-29.85-29.48-.02-16.04,13.47-29.25,29.86-29.25Z"/>
        </g>
      </g>
    </g>
  </g>
</svg>