<?xml version="1.0" encoding="UTF-8"?>
<svg id="Layer_1" xmlns="http://www.w3.org/2000/svg" version="1.1" viewBox="0 0 582.2 155.9">
  <!-- Generator: Adobe Illustrator 29.5.1, SVG Export Plug-In . SVG Version: 2.1.0 Build 141)  -->
  <defs>
    <style>
      .st0 {
        fill: #2d5a47;
      }
    </style>
  </defs>
  <g>
    <path class="st0" d="M138,100.4c1,0,2.6.3,3.8-.4,1.1-.7,2.2-2.4,2.4-6.2.2-4.1-.2-6.5-.2-6.7-1-6.3-4.3-13.1-9.3-27.2-5.3-14.8.9-26.4,7.8-34,1.6-1.8.4-4.5-2.2-4.6-2.6,0-5.7.7-8.5,2.2-9,4.7-17.6,17.1-17.8,36.5v.7c0,.3,0,.5,0,.8-.1,21,9.7,33.8,19.4,37.7,2.1.9,4.1,1.2,4.7,1.2h0Z"/>
    <path class="st0" d="M154.4,67.2c4.1,11.3,1.6,22.7-1.7,30.7-.5,1.2.5,2.4,1.8,2.3,0,0,8,.1,15.1-7.6,6.3-6.9,10.7-17,10.6-31.5v-1.5c-.1-22.8-11.9-35.8-22.4-38.3-1.4-.3-2.9.4-3.5,1.6-4.8,10.6-5.7,28.1,0,44.1h0Z"/>
  </g>
  <g>
    <path class="st0" d="M20.9,98.8L-.1,22.8h19s12.7,49.1,12.7,49.1l15.1-49.2h16.8s15.2,49.1,15.2,49.1l12.4-49.2h18.7s-20.9,76.1-20.9,76.1h-19.1s-14.8-48.5-14.8-48.5l-14.6,48.7h-19.3s0,0,0,0Z"/>
    <path class="st0" d="M213.7,98.4h-20s-.2-94.3-.2-94.3L213.5-.5l.2,98.9h0Z"/>
    <path class="st0" d="M239.6,39h-15.6s0-16.8,0-16.8h15.6s0-18.3,0-18.3l20-4.6v22.8s21.7,0,21.7,0v16.8s-21.6,0-21.6,0v33.7c0,7.2,2.9,9.8,10.6,9.8,3.8,0,6.7-.4,10.7-1.8v16.3c-4.2,1.3-11,2.4-15.4,2.4-16.9,0-25.7-7.7-25.8-22.6v-37.8c0,0,0,0,0,0Z"/>
    <path class="st0" d="M291,3.9l20-4.6v28.8c5.9-4.8,13-7.5,21.4-7.5,17.7,0,30.1,12.3,30.1,30.2v47.3c.1,0-19.9,0-19.9,0v-44.4c-.1-9.6-6.3-15.9-15.9-15.9-6.7,0-12.1,2.7-15.6,7.6v52.7c.1,0-19.9,0-19.9,0l-.2-94.3h0Z"/>
    <path class="st0" d="M415.2,99.4c-23.1,0-40.9-17.1-41-39.3,0-22,17-39.5,39-39.5,21.6,0,37.7,17.4,37.8,40.8v5.3h-56.6c2.8,9.6,11.1,16,21.6,16,6.7,0,12.7-2.2,16.8-6.2l13.2,11.9c-9.3,7.6-18.7,11-30.8,11h0ZM394.2,52.4h37.2c-2.5-9.1-9.8-15.4-18.6-15.4-9.2,0-16.2,6-18.6,15.4h0Z"/>
    <path class="st0" d="M523.9,75.3c8.9,5.8,16.7,8.6,24.7,8.6,8.9,0,14.7-3.2,14.7-8.1,0-3.9-2.9-6.1-9.5-7.1l-14.6-2.2c-15-2.3-23.1-9.7-23.1-22,0-14.8,12.2-24.1,31.6-24.2,11.1,0,21.8,3.2,31.3,9.4l-9.6,12.9c-8.3-5-15.8-7.3-23.5-7.2-7.3,0-12,3-12,7.5,0,4.1,2.9,6.1,10.4,7.1l14.6,2.2c14.9,2.2,23.2,9.9,23.3,21.7,0,14.3-14.1,25.1-33.2,25.2-13.9,0-26.3-3.6-34.9-10.4l9.9-13.3h0Z"/>
  </g>
  <path class="st0" d="M460.7,21.9h19.8s0,8.4,0,8.4c4.8-6.5,11.7-10,20.1-10,3.9.1,6.2.6,8.3,1.7v17.4c-2.9-1.3-6.5-2-10.1-2-7.7,0-14.5,3.9-18.2,11.3v49.1c.1,0-19.7,0-19.7,0l-.2-75.9h0Z"/>
  <g>
    <path class="st0" d="M89.4,133h5.4l9.2,22.6h-5.1l-2.3-5.9h-9.4s-2.3,6-2.3,6h-4.9s9.3-22.7,9.3-22.7ZM95.3,146l-3.2-8.4-3.2,8.4h6.5Z"/>
    <path class="st0" d="M130.7,148.6c2.7,2.3,5,3.3,7.7,3.3s4.6-1.1,4.6-2.9-1-2.3-3.7-2.8l-4.5-.8c-3.9-.6-5.9-2.7-5.9-6,0-4.2,3.4-6.9,8.9-6.9,3.3,0,6.8,1.2,9.4,3.1l-2.5,3.5c-2.4-1.8-4.7-2.7-7.2-2.7s-4.1,1-4.1,2.6.9,2.1,3.2,2.5l4.3.7c4.5.7,6.8,2.9,6.8,6.4,0,4.4-3.7,7.3-9.5,7.3-3.7,0-7.3-1.4-10.1-3.9l2.7-3.4h0Z"/>
    <path class="st0" d="M174.9,148.6c2.7,2.3,5,3.3,7.7,3.3s4.6-1.1,4.6-2.9-1-2.3-3.7-2.8l-4.5-.8c-3.9-.6-5.9-2.7-5.9-6,0-4.2,3.4-6.9,8.9-6.9,3.3,0,6.8,1.2,9.4,3.1l-2.5,3.5c-2.4-1.8-4.7-2.7-7.2-2.7s-4.1,1-4.1,2.6.9,2.1,3.2,2.5l4.3.7c4.5.7,6.8,2.9,6.8,6.4,0,4.4-3.7,7.3-9.5,7.3-3.7,0-7.3-1.4-10.1-3.9l2.7-3.4h0Z"/>
    <path class="st0" d="M229.1,155.8c-6.7,0-12-5.1-12-11.7s5.3-11.7,12-11.7,12,5.1,12.1,11.7-5.2,11.7-12,11.7h0ZM229,136.7c-4.1,0-7.1,3.2-7.1,7.4s3.1,7.4,7.2,7.4,7.2-3.2,7.2-7.4-3.1-7.4-7.2-7.4h0Z"/>
    <path class="st0" d="M285.1,148.4l3.1,3c-2.2,2.6-5.7,4.2-9.3,4.2-6.8,0-12.1-5.1-12.1-11.6s5.3-11.7,12.1-11.7c3.7,0,7.3,1.6,9.4,4.2l-3.2,3.1c-1.6-2-3.8-3.1-6.3-3.1-4.1,0-7.2,3.2-7.2,7.4s3.2,7.3,7.4,7.3c2.4,0,4.5-1,6.1-2.9h0Z"/>
    <path class="st0" d="M314.2,132.5h4.7v22.7s-4.7,0-4.7,0v-22.7Z"/>
    <path class="st0" d="M353.5,132.4h5.4l9.2,22.6h-5.1l-2.3-5.9h-9.4s-2.3,6-2.3,6h-4.9l9.3-22.7ZM359.4,145.4l-3.2-8.4-3.2,8.4h6.5Z"/>
    <path class="st0" d="M387.5,132.4h20s0,4.1,0,4.1h-7.6s0,18.6,0,18.6h-4.7v-18.5s-7.7,0-7.7,0v-4.1h0Z"/>
    <path class="st0" d="M433.4,132.3h17.4s0,4,0,4h-12.7v5.2h8.4s0,3.9,0,3.9h-8.4v5.4h12.9s0,4.1,0,4.1h-17.5s0-22.6,0-22.6h0Z"/>
    <path class="st0" d="M478.4,147.9c2.7,2.3,5,3.3,7.7,3.3s4.6-1.1,4.6-2.9-1-2.3-3.7-2.8l-4.5-.8c-3.9-.6-5.9-2.7-5.9-6,0-4.2,3.4-6.9,8.9-6.9,3.3,0,6.8,1.2,9.4,3.1l-2.5,3.5c-2.4-1.8-4.7-2.7-7.2-2.7s-4.1,1-4.1,2.6.9,2.1,3.2,2.5l4.3.7c4.5.7,6.8,2.9,6.8,6.4,0,4.4-3.7,7.3-9.5,7.3-3.7,0-7.3-1.4-10-3.9l2.7-3.4h0Z"/>
  </g>
</svg>